<svg width="36" height="30" viewBox="0 0 36 30" fill="none" xmlns="http://www.w3.org/2000/svg">
<path d="M17.9748 29.463H17.9621C17.8621 29.463 17.759 29.4596 17.659 29.4533C17.5525 29.4468 17.4463 29.4371 17.3432 29.424C17.2402 29.4109 17.1336 29.3951 17.0305 29.3789C17.0244 29.3764 17.0178 29.3753 17.0112 29.3758C16.9144 29.3565 16.8175 29.3341 16.721 29.3113C16.5669 29.2767 16.4152 29.2326 16.2665 29.1793H16.2631C16.1118 29.1276 15.9666 29.0696 15.8215 29.0052C15.7732 28.9824 15.725 28.9631 15.6798 28.9362C15.6346 28.9093 15.5829 28.8911 15.5378 28.8673L15.5347 28.8642C15.4864 28.8383 15.4412 28.8125 15.3968 28.7866C15.3523 28.7607 15.3033 28.7352 15.2589 28.7063C15.1782 28.6577 15.0975 28.6094 15.0203 28.5577C14.8316 28.4278 14.6507 28.2869 14.4787 28.1357C14.427 28.0905 14.3818 28.0485 14.3335 28.0002C14.3015 27.9713 14.2725 27.942 14.2401 27.9099C14.1822 27.852 14.1239 27.7906 14.0677 27.7292C14.0115 27.6679 13.9584 27.6038 13.9036 27.5393C13.8488 27.4748 13.7971 27.4103 13.7488 27.3424C13.7006 27.2745 13.6489 27.2045 13.6006 27.1328L13.4844 26.9604L13.4458 26.9022C12.9546 26.0796 12.695 25.1395 12.6946 24.1814C12.6929 23.1319 13.0074 22.1064 13.5971 21.2382L17.8621 14.9138L17.9686 14.759L18.12 14.5331L20.7118 10.6874L26.0341 2.79914C26.0357 2.79562 26.0377 2.79236 26.0403 2.78949L26.2885 2.42198C26.6685 1.83106 27.1626 1.322 27.742 0.924666C28.3214 0.527331 28.9743 0.249736 29.6624 0.108181C30.3505 -0.0333751 31.06 -0.0360335 31.7492 0.100342C32.4383 0.236718 33.0933 0.509387 33.6757 0.90235C34.258 1.29531 34.7559 1.80065 35.1403 2.3887C35.5247 2.97674 35.7877 3.63565 35.9139 4.32674C36.0404 5.01783 36.0273 5.72716 35.8757 6.41315C35.724 7.09914 35.4368 7.7479 35.031 8.32139L26.7915 20.5356C26.7884 20.5387 26.7884 20.5422 26.785 20.5453L24.5158 23.9108L22.3849 27.0697C22.3752 27.0828 22.3687 27.0925 22.3621 27.1021C22.3566 27.1141 22.349 27.1249 22.3397 27.1342V27.1376C22.2753 27.2311 22.2077 27.3214 22.1398 27.4083C22.1321 27.4243 22.1212 27.4387 22.1077 27.4503C22.0625 27.5117 22.0108 27.5727 21.9594 27.6306C21.8788 27.7275 21.7916 27.8209 21.7016 27.9113L21.695 27.9178C21.6261 27.9868 21.5595 28.0499 21.4882 28.1143C21.4592 28.1371 21.4303 28.1626 21.4013 28.1885C21.3496 28.2367 21.2948 28.2788 21.24 28.3208C21.2255 28.3356 21.2093 28.3486 21.1917 28.3594C21.1402 28.402 21.0864 28.4418 21.0307 28.4787C20.9963 28.5073 20.9596 28.5332 20.9211 28.556C20.9211 28.5591 20.9176 28.5591 20.9176 28.5591C20.742 28.6764 20.5602 28.7841 20.3729 28.8818C20.2891 28.9235 20.2022 28.9655 20.1181 29.0041C20.115 29.0041 20.115 29.0072 20.1119 29.0072C20.0151 29.0493 19.9216 29.0879 19.8251 29.1234C19.7286 29.1589 19.6251 29.1944 19.5221 29.2268C19.419 29.2593 19.319 29.2848 19.219 29.3106C19.1191 29.3365 19.0222 29.3558 18.9256 29.3751C18.9139 29.3756 18.9023 29.3779 18.8912 29.3816C18.7912 29.3978 18.6947 29.4137 18.5947 29.4234C18.4947 29.433 18.385 29.4461 18.2785 29.4527C18.1778 29.4596 18.0782 29.463 17.9748 29.463Z" fill="url(#paint0_linear)"/>
<g style="mix-blend-mode:multiply" opacity="0.1">
<g style="mix-blend-mode:multiply" opacity="0.1">
<path d="M17.9748 29.463H17.9621C17.8621 29.463 17.759 29.4595 17.659 29.4533C17.5525 29.4468 17.4463 29.4371 17.3432 29.424C17.2402 29.4109 17.1336 29.395 17.0305 29.3788C17.0244 29.3764 17.0178 29.3753 17.0112 29.3758C16.9144 29.3565 16.8175 29.3341 16.721 29.3113C16.5669 29.2767 16.4152 29.2326 16.2665 29.1793H16.2631C16.1118 29.1276 15.9666 29.0696 15.8215 29.0052C15.7732 28.9824 15.725 28.9631 15.6798 28.9362C15.6346 28.9093 15.5829 28.8911 15.5378 28.8673L15.5347 28.8642C15.4864 28.8383 15.4412 28.8124 15.3968 28.7866C15.3523 28.7607 15.3033 28.7352 15.2589 28.7063C15.1782 28.6577 15.0975 28.6094 15.0203 28.5577C14.8316 28.4278 14.6507 28.2869 14.4787 28.1357C14.427 28.0905 14.3818 28.0484 14.3335 28.0002C14.3015 27.9712 14.2725 27.9419 14.2401 27.9099C14.1822 27.852 14.1239 27.7906 14.0677 27.7292C14.0115 27.6679 13.9584 27.6037 13.9036 27.5392C13.8488 27.4748 13.7971 27.4103 13.7488 27.3424C13.7006 27.2745 13.6489 27.2045 13.6006 27.1328L13.4844 26.9604L13.4458 26.9022C12.9546 26.0796 12.695 25.1395 12.6946 24.1814C12.6929 23.1319 13.0074 22.1063 13.5971 21.2382L17.8621 14.9137L17.9686 14.759L18.12 14.5331L20.7118 10.6874L20.8052 11.0163L24.5158 23.9101L22.3849 27.069C22.3752 27.0821 22.3687 27.0918 22.3621 27.1014C22.3566 27.1133 22.349 27.1242 22.3397 27.1335V27.137C22.2753 27.2304 22.2077 27.3207 22.1398 27.4076C22.1321 27.4236 22.1212 27.438 22.1077 27.4496C22.0625 27.511 22.0108 27.572 21.9594 27.6299C21.8788 27.7268 21.7916 27.8202 21.7016 27.9106L21.695 27.9171C21.6261 27.9861 21.5595 28.0492 21.4882 28.1136C21.4592 28.1364 21.4303 28.1619 21.4013 28.1878C21.3496 28.236 21.2948 28.2781 21.24 28.3201C21.2255 28.3349 21.2093 28.3479 21.1917 28.3588C21.1402 28.4013 21.0864 28.4411 21.0307 28.478C20.9963 28.5067 20.9596 28.5325 20.9211 28.5553C20.9211 28.5584 20.9176 28.5584 20.9176 28.5584C20.742 28.6757 20.5602 28.7834 20.3729 28.881C20.2891 28.9227 20.2022 28.9648 20.1181 29.0034C20.115 29.0034 20.115 29.0065 20.1119 29.0065C20.0151 29.0486 19.9216 29.0872 19.8251 29.1227C19.7286 29.1582 19.6251 29.1937 19.5221 29.2261C19.419 29.2585 19.319 29.2841 19.219 29.3099C19.1191 29.3358 19.0222 29.3551 18.9256 29.3744C18.9139 29.3749 18.9023 29.3772 18.8912 29.3809C18.7912 29.3971 18.6947 29.413 18.5947 29.4227C18.4947 29.4323 18.385 29.4454 18.2785 29.4519C18.1778 29.4595 18.0782 29.463 17.9748 29.463Z" fill="black"/>
</g>
</g>
<path d="M17.9746 29.463H17.9619C17.8619 29.463 17.7588 29.4596 17.6588 29.4534C17.5523 29.4468 17.4462 29.4371 17.3431 29.424C17.24 29.4109 17.1334 29.3951 17.0304 29.3789C17.0243 29.3764 17.0177 29.3753 17.0111 29.3758C16.9142 29.3565 16.8173 29.3341 16.7208 29.3113C16.4124 29.2365 16.1114 29.134 15.8213 29.0052C15.7248 28.9631 15.631 28.9148 15.5376 28.8697L15.5345 28.8666C15.4411 28.8183 15.3476 28.7632 15.2587 28.7087C15.178 28.6601 15.0973 28.6118 15.0201 28.5601C14.8314 28.4303 14.6506 28.2893 14.4785 28.1381C14.3947 28.064 14.3172 27.9895 14.2399 27.9123C14.0033 27.6739 13.7897 27.4137 13.6018 27.1352L13.4856 26.9629L13.447 26.9046L12.2831 25.1832L12.28 25.1801C12.28 25.1767 12.2769 25.1767 12.2769 25.1736C12.2769 25.1705 12.2735 25.1705 12.2735 25.167H12.2704C12.2655 25.1609 12.2612 25.1545 12.2573 25.1477L8.18918 19.1163L7.70898 18.404L0.903886 8.32381C0.311284 7.44652 -0.00321948 6.41105 0.00139279 5.35239C0.00600505 4.29368 0.329523 3.26098 0.929746 2.3889C0.952155 2.35683 0.971461 2.33098 0.987664 2.31167C1.45388 1.65401 2.06554 1.11279 2.77507 0.730097C3.48458 0.347412 4.27286 0.133587 5.07851 0.105255H5.58457C6.3943 0.154386 7.18185 0.389289 7.88618 0.791763C8.59051 1.19423 9.19272 1.75347 9.64614 2.42613L13.6242 8.32553L13.7725 8.5448L15.8099 11.5621L16.1258 12.0327C16.1289 12.0399 16.1333 12.0464 16.1388 12.052L17.9698 14.7631L17.9857 14.7855L22.3409 21.2393C22.9222 22.1022 23.2356 23.1175 23.2418 24.1579C23.2479 25.1983 22.9465 26.2173 22.3754 27.087C22.3623 27.1063 22.3496 27.1256 22.3409 27.1418C22.2765 27.2352 22.2089 27.3255 22.141 27.4124C22.0831 27.49 22.0252 27.5641 21.9607 27.6348C21.88 27.7317 21.7928 27.8251 21.7028 27.9154L21.6962 27.922C21.6028 28.0154 21.506 28.1057 21.4029 28.1926C21.3512 28.2409 21.2964 28.2829 21.2416 28.325C21.2271 28.3398 21.2109 28.3528 21.1933 28.3636C21.1417 28.4062 21.088 28.446 21.0323 28.4829C20.996 28.5116 20.9583 28.5384 20.9192 28.5632C20.6636 28.7349 20.3941 28.8848 20.1135 29.0114C20.0166 29.0534 19.9232 29.0921 19.8267 29.1276C19.7302 29.1631 19.6267 29.1986 19.5236 29.231C19.4205 29.2634 19.3206 29.2889 19.2206 29.3148C19.1206 29.3406 19.0237 29.3599 18.9272 29.3792C18.9155 29.3798 18.9039 29.382 18.8928 29.3858C18.7928 29.402 18.6962 29.4178 18.5962 29.4275C18.4963 29.4371 18.3866 29.4503 18.2801 29.4568C18.1777 29.4596 18.0781 29.463 17.9746 29.463Z" fill="url(#paint1_linear)"/>
<g style="mix-blend-mode:multiply" opacity="0.1">
<g style="mix-blend-mode:multiply" opacity="0.1">
<path d="M8.18784 19.1149L7.7076 18.4027L0.902542 8.32243C0.309941 7.44514 -0.00456225 6.40964 5.00122e-05 5.35097C0.0046623 4.29231 0.32817 3.25959 0.928391 2.38751C0.9508 2.35544 0.970117 2.32959 0.98632 2.31028C1.45254 1.65262 2.0642 1.1114 2.77373 0.728711C3.48324 0.346023 4.27152 0.132199 5.07717 0.103867H5.58323C6.39296 0.152998 7.18051 0.387901 7.88484 0.790374C8.58917 1.19284 9.19135 1.75208 9.64477 2.42474L13.6229 8.32415L13.7711 8.54342L15.8086 11.5607L8.34918 18.9529L8.18784 19.1149Z" fill="black"/>
</g>
</g>
<path d="M7.7076 18.4013L0.902542 8.32102C0.309941 7.44376 -0.00456225 6.40826 5.00122e-05 5.34959C0.0046623 4.29093 0.32817 3.2582 0.928391 2.38612C0.9508 2.35405 0.970117 2.3282 0.98632 2.30889C1.45254 1.65123 2.0642 1.11001 2.77373 0.727322C3.48324 0.344635 4.27152 0.13081 5.07717 0.102478H18.9579L13.7711 8.54135L8.93251 16.41C8.9294 16.4134 8.92944 16.4165 8.92599 16.4196L7.84309 18.1799L7.7076 18.4013Z" fill="url(#paint2_linear)"/>
<defs>
<linearGradient id="paint0_linear" x1="-275.197" y1="-78.8431" x2="-250.14" y2="-65.989" gradientUnits="userSpaceOnUse">
<stop stop-color="#EB643F"/>
<stop offset="1" stop-color="#964C9A"/>
</linearGradient>
<linearGradient id="paint1_linear" x1="-252.042" y1="-67.3001" x2="-265.06" y2="-57.4202" gradientUnits="userSpaceOnUse">
<stop stop-color="#FCC400"/>
<stop offset="0.162" stop-color="#FBC000"/>
<stop offset="0.307" stop-color="#FBB500"/>
<stop offset="0.446" stop-color="#FBA300"/>
<stop offset="0.581" stop-color="#FA8900"/>
<stop offset="0.712" stop-color="#FA6800"/>
<stop offset="0.842" stop-color="#F93F00"/>
<stop offset="0.967" stop-color="#F81000"/>
<stop offset="1" stop-color="#F80300"/>
</linearGradient>
<linearGradient id="paint2_linear" x1="-276.501" y1="-53.3483" x2="-258.188" y2="-53.3483" gradientUnits="userSpaceOnUse">
<stop stop-color="#FC7300"/>
<stop offset="1" stop-color="#E64A2C"/>
</linearGradient>
</defs>
</svg>
